<?xml version="1.0" standalone="no"?>
<!DOCTYPE svg PUBLIC "-//W3C//DTD SVG 20010904//EN"
 "http://www.w3.org/TR/2001/REC-SVG-20010904/DTD/svg10.dtd">
<svg version="1.0" xmlns="http://www.w3.org/2000/svg"
 width="318.000000pt" height="316.000000pt" viewBox="0 0 318.000000 316.000000"
 preserveAspectRatio="xMidYMid meet">

<g transform="translate(0.000000,316.000000) scale(0.100000,-0.100000)"
fill="#000000" stroke="none">
<path d="M597 3135 c-123 -26 -258 -86 -324 -144 -19 -17 -39 -31 -44 -31 -5
0 -9 -4 -9 -9 0 -5 -16 -24 -35 -42 -19 -18 -37 -45 -40 -60 -3 -14 -17 -37
-31 -49 -13 -13 -24 -28 -24 -33 0 -6 -6 -18 -14 -26 -7 -9 -21 -46 -30 -84
-28 -114 -2 -193 75 -223 21 -9 41 -24 44 -33 3 -9 31 -44 63 -78 70 -74 103
-113 191 -224 37 -47 76 -95 87 -105 10 -11 38 -43 61 -70 24 -28 62 -71 85
-96 24 -26 57 -66 75 -90 18 -23 45 -56 60 -73 16 -16 36 -42 45 -57 20 -30
87 -106 166 -185 28 -29 52 -57 52 -61 0 -4 38 -46 83 -94 46 -48 96 -105 111
-127 16 -22 39 -47 52 -56 13 -8 24 -22 24 -29 0 -8 14 -24 31 -37 17 -13 45
-38 62 -55 18 -18 77 -71 132 -118 55 -47 114 -98 130 -113 17 -15 93 -84 170
-153 76 -69 154 -138 171 -155 31 -29 147 -134 190 -172 11 -10 40 -41 62 -69
35 -43 49 -53 84 -58 34 -5 55 -18 99 -60 l56 -53 118 19 c65 10 132 25 149
32 94 41 114 51 151 78 35 26 133 117 168 158 29 34 47 98 50 183 3 58 0 87
-7 88 -6 0 1 5 15 10 25 9 26 13 18 47 -5 20 -9 51 -9 68 0 24 -8 38 -32 57
-18 13 -43 33 -55 43 -12 11 -34 28 -48 39 -58 45 -125 106 -240 220 -68 66
-157 152 -200 190 -43 39 -94 86 -115 105 -20 19 -118 108 -217 198 -125 113
-183 172 -186 190 -6 24 -131 157 -239 254 -20 18 -58 53 -85 78 -27 25 -73
67 -103 94 -86 76 -250 239 -305 301 -27 31 -61 69 -75 84 -14 16 -36 43 -50
60 -14 18 -35 43 -47 56 -13 12 -23 26 -23 31 0 5 -26 36 -58 69 -113 118
-152 172 -152 207 0 18 -8 52 -17 76 -14 38 -24 47 -70 68 -67 31 -156 38
-246 19z m181 -147 c17 -15 15 -31 -13 -90 -32 -66 -36 -71 -115 -139 -63 -54
-123 -96 -185 -129 -16 -9 -39 -21 -50 -27 -96 -56 -238 -82 -252 -47 -9 25
25 124 61 173 42 59 128 144 180 181 111 76 321 120 374 78z m152 -195 c14
-20 38 -50 55 -67 16 -17 34 -38 40 -48 17 -28 69 -98 108 -146 112 -140 140
-172 227 -264 52 -56 102 -108 112 -115 15 -14 33 -32 150 -148 22 -22 91 -90
154 -151 63 -62 114 -116 114 -121 0 -19 84 -93 105 -93 12 0 37 -16 57 -37
20 -21 59 -58 89 -83 29 -25 62 -56 73 -69 12 -13 32 -33 45 -45 13 -12 58
-55 100 -96 43 -41 84 -80 92 -86 8 -6 23 -22 35 -35 12 -13 30 -31 40 -41 10
-9 35 -34 55 -55 20 -21 50 -50 66 -64 17 -14 35 -35 41 -46 6 -11 27 -31 46
-44 20 -13 36 -29 36 -34 0 -11 208 -216 250 -247 l24 -18 -23 -24 c-29 -30
-35 -73 -15 -103 33 -51 7 -129 -76 -223 -61 -71 -170 -139 -292 -185 l-48
-18 -52 40 c-29 22 -61 42 -71 46 -9 4 -22 18 -27 31 -5 14 -18 30 -29 36 -12
6 -42 33 -68 60 -26 28 -51 50 -56 50 -10 0 -167 131 -167 139 0 4 -12 14 -27
23 -16 9 -44 30 -63 47 -19 17 -53 45 -74 63 -21 18 -46 41 -55 50 -8 10 -20
18 -26 18 -12 0 -184 155 -205 185 -8 12 -33 40 -55 62 -22 22 -74 77 -115
122 -41 45 -106 116 -145 157 -38 41 -89 96 -112 122 -102 115 -188 202 -200
202 -7 0 -13 6 -13 13 0 6 -26 39 -58 73 -31 33 -77 85 -102 115 -25 29 -90
102 -145 162 -55 60 -126 139 -159 175 -122 139 -223 248 -275 297 l-54 51 84
34 c113 44 170 74 193 99 11 12 25 21 32 21 7 0 17 6 21 13 11 20 63 51 63 39
0 -16 28 -22 69 -16 39 6 131 78 131 102 0 7 4 12 9 12 4 0 18 23 29 50 12 28
25 50 29 50 4 0 19 -17 33 -37z"/>
</g>
</svg>
